<?xml version="1.0" encoding="UTF-8" standalone="no"?>
<!-- Created with Inkscape (http://www.inkscape.org/) -->

<svg
   xmlns:dc="http://purl.org/dc/elements/1.1/"
   xmlns:cc="http://creativecommons.org/ns#"
   xmlns:rdf="http://www.w3.org/1999/02/22-rdf-syntax-ns#"
   xmlns:svg="http://www.w3.org/2000/svg"
   xmlns="http://www.w3.org/2000/svg"
   xmlns:sodipodi="http://sodipodi.sourceforge.net/DTD/sodipodi-0.dtd"
   xmlns:inkscape="http://www.inkscape.org/namespaces/inkscape"
   version="1.1"
   id="svg3116"
   xml:space="preserve"
   width="880"
   height="880"
   viewBox="0 0 880 880"
   sodipodi:docname="approved-sticker-freesvg.org.svg"
   inkscape:version="0.92.4 (5da689c313, 2019-01-14)"><metadata
     id="metadata3122"><rdf:RDF><cc:Work
         rdf:about=""><dc:format>image/svg+xml</dc:format><dc:type
           rdf:resource="http://purl.org/dc/dcmitype/StillImage" /><dc:title /></cc:Work></rdf:RDF></metadata><defs
     id="defs3120"><clipPath
       clipPathUnits="userSpaceOnUse"
       id="clipPath3132"><path
         d="M 0,660 H 660 V 0 H 0 Z"
         id="path3130"
         inkscape:connector-curvature="0" /></clipPath></defs><sodipodi:namedview
     pagecolor="#ffffff"
     bordercolor="#666666"
     borderopacity="1"
     objecttolerance="10"
     gridtolerance="10"
     guidetolerance="10"
     inkscape:pageopacity="0"
     inkscape:pageshadow="2"
     inkscape:window-width="1920"
     inkscape:window-height="1018"
     id="namedview3118"
     showgrid="false"
     inkscape:zoom="0.7489683"
     inkscape:cx="286.67725"
     inkscape:cy="447.45763"
     inkscape:window-x="-8"
     inkscape:window-y="-8"
     inkscape:window-maximized="1"
     inkscape:current-layer="g3124" /><g
     id="g3124"
     inkscape:groupmode="layer"
     inkscape:label="approved-sticker-pd"
     transform="matrix(1.3333333,0,0,-1.3333333,0,880)"><g
       id="g3126"><g
         id="g3128"
         clip-path="url(#clipPath3132)"><path
           d="m 49.725,218.914 -32.893,120.74 c -0.138,0.506 0.003,0.911 0.147,1.162 0.144,0.251 0.421,0.58 0.927,0.717 l 598.977,163.179 c 0.505,0.138 0.909,-0.004 1.161,-0.149 0.252,-0.143 0.58,-0.42 0.718,-0.926 0,0 32.892,-120.736 32.893,-120.739 0.036,-0.134 0.054,-0.269 0.054,-0.402 0,-0.673 -0.448,-1.292 -1.129,-1.477 L 51.604,217.839 c -0.814,-0.222 -1.658,0.261 -1.879,1.075 M 612.859,519.481 13.882,356.303 C 9.543,355.121 5.923,352.319 3.691,348.415 1.458,344.51 0.88,339.97 2.062,335.63 L 34.955,214.891 c 2.44,-8.956 11.712,-14.26 20.67,-11.822 l 598.979,163.18 c 8.957,2.439 14.259,11.712 11.821,20.67 l -32.894,120.742 c -1.181,4.339 -3.983,7.958 -7.888,10.191 -3.905,2.233 -8.445,2.812 -12.784,1.629"
           style="fill:#ed1c24;fill-opacity:1;fill-rule:nonzero;stroke:none"
           id="path3134"
           inkscape:connector-curvature="0" /><path
           d="m 95.526,278.244 -14.405,-3.925 -0.178,6.099 12.037,3.279 -21.844,40.893 -0.17,5.678 21.805,5.94 31.785,-58.322 c 1.345,-2.602 1.954,-4.45 5.039,-4.881 1.543,-0.216 2.817,-0.61 3.3,-2.386 0.726,-2.664 -2.853,-3.533 -4.728,-4.044 l -24.566,-6.691 c -1.974,-0.538 -4.889,-1.12 -5.587,1.445 -0.431,1.577 0.028,2.233 1.122,3.273 2.162,2.178 2.368,2.975 0.432,6.583 z m -18.648,26.82 -0.081,-36.268 c 0.06,-6.448 1.899,-7.749 5.656,-8.316 1.767,-0.259 3.31,-0.476 3.847,-2.45 0.753,-2.761 -2.431,-3.524 -4.404,-4.06 l -11.347,-3.091 c -1.973,-0.538 -5.551,-1.407 -6.331,1.455 -0.645,2.368 1.059,2.725 2.934,4.402 1.776,1.65 3.822,4.644 3.788,12.16 l 0.04,46.538 0.296,0.081 z"
           style="fill:#ed1c24;fill-opacity:1;fill-rule:nonzero;stroke:none"
           id="path3136"
           inkscape:connector-curvature="0" /><path
           d="m 95.526,278.244 -14.405,-3.925 -0.178,6.099 12.037,3.279 -21.844,40.893 -0.17,5.678 21.805,5.94 31.785,-58.322 c 1.345,-2.602 1.954,-4.45 5.039,-4.881 1.543,-0.216 2.817,-0.61 3.3,-2.386 0.726,-2.664 -2.853,-3.533 -4.728,-4.044 l -24.566,-6.691 c -1.974,-0.538 -4.889,-1.12 -5.587,1.445 -0.431,1.577 0.028,2.233 1.122,3.273 2.162,2.178 2.368,2.975 0.432,6.583 z m -18.648,26.82 -0.081,-36.268 c 0.06,-6.448 1.899,-7.749 5.656,-8.316 1.767,-0.259 3.31,-0.476 3.847,-2.45 0.753,-2.761 -2.431,-3.524 -4.404,-4.06 l -11.347,-3.091 c -1.973,-0.538 -5.551,-1.407 -6.331,1.455 -0.645,2.368 1.059,2.725 2.934,4.402 1.776,1.65 3.822,4.644 3.788,12.16 l 0.04,46.538 0.296,0.081 z"
           style="fill:none;stroke:#ed1c24;stroke-width:0.81599998;stroke-linecap:butt;stroke-linejoin:miter;stroke-miterlimit:4;stroke-dasharray:none;stroke-opacity:1"
           id="path3138"
           inkscape:connector-curvature="0" /><path
           d="m 151.571,352.226 c 9.372,2.553 15.166,3.073 20.529,1.672 8.484,-2.353 13.119,-8.085 15.377,-16.372 2.258,-8.288 1.17,-15.578 -4.948,-21.909 -3.911,-3.927 -9.168,-6.418 -18.541,-8.971 l -1.558,5.721 c 5.525,2.672 4.718,6.797 3.402,11.631 l -4.059,14.899 c -1.209,4.439 -3.199,8.242 -8.643,7.607 z M 125.97,333.382 c -0.995,3.65 -1.058,4.269 -4.806,4.414 -1.391,0.044 -2.52,0.691 -2.896,2.073 -0.78,2.86 2.422,3.944 2.817,4.052 l 26.046,7.096 17.094,-62.747 c 0.995,-3.653 1.058,-4.272 4.807,-4.415 1.389,-0.045 2.519,-0.691 2.896,-2.073 0.779,-2.86 -2.423,-3.945 -2.818,-4.053 l -27.921,-7.607 c -0.395,-0.106 -3.704,-0.796 -4.483,2.065 -0.376,1.381 0.269,2.51 1.444,3.255 3.158,2.025 2.897,2.591 1.903,6.242 z"
           style="fill:#ed1c24;fill-opacity:1;fill-rule:nonzero;stroke:none"
           id="path3140"
           inkscape:connector-curvature="0" /><path
           d="m 151.571,352.226 c 9.372,2.553 15.166,3.073 20.529,1.672 8.484,-2.353 13.119,-8.085 15.377,-16.372 2.258,-8.288 1.17,-15.578 -4.948,-21.909 -3.911,-3.927 -9.168,-6.418 -18.541,-8.971 l -1.558,5.721 c 5.525,2.672 4.718,6.797 3.402,11.631 l -4.059,14.899 c -1.209,4.439 -3.199,8.242 -8.643,7.607 z M 125.97,333.382 c -0.995,3.65 -1.058,4.269 -4.806,4.414 -1.391,0.044 -2.52,0.691 -2.896,2.073 -0.78,2.86 2.422,3.944 2.817,4.052 l 26.046,7.096 17.094,-62.747 c 0.995,-3.653 1.058,-4.272 4.807,-4.415 1.389,-0.045 2.519,-0.691 2.896,-2.073 0.779,-2.86 -2.423,-3.945 -2.818,-4.053 l -27.921,-7.607 c -0.395,-0.106 -3.704,-0.796 -4.483,2.065 -0.376,1.381 0.269,2.51 1.444,3.255 3.158,2.025 2.897,2.591 1.903,6.242 z"
           style="fill:none;stroke:#ed1c24;stroke-width:0.81599998;stroke-linecap:butt;stroke-linejoin:miter;stroke-miterlimit:4;stroke-dasharray:none;stroke-opacity:1"
           id="path3142"
           inkscape:connector-curvature="0" /><path
           d="m 222.013,371.416 c 9.373,2.554 15.166,3.073 20.529,1.672 8.484,-2.352 13.119,-8.084 15.376,-16.371 2.259,-8.288 1.171,-15.579 -4.947,-21.909 -3.911,-3.928 -9.167,-6.419 -18.54,-8.972 l -1.559,5.722 c 5.525,2.671 4.719,6.796 3.401,11.631 l -4.058,14.898 c -1.209,4.439 -3.199,8.243 -8.643,7.607 z m -25.601,-18.844 c -0.995,3.651 -1.058,4.269 -4.807,4.414 -1.389,0.045 -2.519,0.691 -2.896,2.073 -0.779,2.861 2.423,3.944 2.818,4.052 l 26.046,7.096 17.094,-62.748 c 0.995,-3.651 1.058,-4.27 4.807,-4.413 1.39,-0.046 2.519,-0.692 2.896,-2.073 0.779,-2.861 -2.423,-3.946 -2.817,-4.053 l -27.921,-7.607 c -0.395,-0.108 -3.704,-0.797 -4.484,2.065 -0.376,1.381 0.269,2.51 1.445,3.255 3.157,2.025 2.897,2.591 1.902,6.241 z"
           style="fill:#ed1c24;fill-opacity:1;fill-rule:nonzero;stroke:none"
           id="path3144"
           inkscape:connector-curvature="0" /><path
           d="m 222.013,371.416 c 9.373,2.554 15.166,3.073 20.529,1.672 8.484,-2.352 13.119,-8.084 15.376,-16.371 2.259,-8.288 1.171,-15.579 -4.947,-21.909 -3.911,-3.928 -9.167,-6.419 -18.54,-8.972 l -1.559,5.722 c 5.525,2.671 4.719,6.796 3.401,11.631 l -4.058,14.898 c -1.209,4.439 -3.199,8.243 -8.643,7.607 z m -25.601,-18.844 c -0.995,3.651 -1.058,4.269 -4.807,4.414 -1.389,0.045 -2.519,0.691 -2.896,2.073 -0.779,2.861 2.423,3.944 2.818,4.052 l 26.046,7.096 17.094,-62.748 c 0.995,-3.651 1.058,-4.27 4.807,-4.413 1.39,-0.046 2.519,-0.692 2.896,-2.073 0.779,-2.861 -2.423,-3.946 -2.817,-4.053 l -27.921,-7.607 c -0.395,-0.108 -3.704,-0.797 -4.484,2.065 -0.376,1.381 0.269,2.51 1.445,3.255 3.157,2.025 2.897,2.591 1.902,6.241 z"
           style="fill:none;stroke:#ed1c24;stroke-width:0.81599998;stroke-linecap:butt;stroke-linejoin:miter;stroke-miterlimit:4;stroke-dasharray:none;stroke-opacity:1"
           id="path3146"
           inkscape:connector-curvature="0" /><path
           d="m 294.231,391.091 0.493,0.134 c 6.413,1.747 13.068,3.773 19.767,2.524 7.498,-1.455 12.33,-5.968 14.471,-13.439 3.289,-11.292 -2.865,-18.268 -12.284,-23.377 l 0.054,-0.197 c 9.13,1.109 18.214,0.828 21.261,-9.575 l 2.364,-8.683 c 0.243,-0.888 0.486,-2.941 1.767,-2.593 1.578,0.431 1.096,3.372 3.463,4.017 1.284,0.35 3.266,-0.7 3.642,-2.081 0.779,-2.862 -1.481,-7.398 -3.197,-9.667 -2.6,-3.677 -5.937,-5.433 -10.179,-6.589 -4.244,-1.156 -8.386,-1.12 -12.278,1.106 -4.421,2.611 -6.098,6.819 -7.36,11.455 l -1.827,6.709 c -1.237,4.538 -2.842,10.037 -8.922,9.016 l -1.587,5.821 c 5.195,1.945 4.998,5.389 3.681,10.224 l -3.253,11.937 c -1.342,4.933 -3.074,7.005 -8.49,7.438 z M 268.63,372.247 c -0.995,3.65 -1.057,4.269 -4.806,4.414 -1.39,0.045 -2.52,0.691 -2.897,2.072 -0.779,2.861 2.423,3.945 2.818,4.052 l 26.046,7.097 17.094,-62.748 c 0.994,-3.652 1.058,-4.271 4.806,-4.414 1.391,-0.046 2.521,-0.692 2.897,-2.073 0.779,-2.861 -2.423,-3.946 -2.817,-4.053 l -27.921,-7.607 c -0.396,-0.107 -3.705,-0.797 -4.484,2.065 -0.376,1.381 0.27,2.511 1.445,3.256 3.157,2.024 2.897,2.589 1.903,6.241 z"
           style="fill:#ed1c24;fill-opacity:1;fill-rule:nonzero;stroke:none"
           id="path3148"
           inkscape:connector-curvature="0" /><path
           d="m 294.231,391.091 0.493,0.134 c 6.413,1.747 13.068,3.773 19.767,2.524 7.498,-1.455 12.33,-5.968 14.471,-13.439 3.289,-11.292 -2.865,-18.268 -12.284,-23.377 l 0.054,-0.197 c 9.13,1.109 18.214,0.828 21.261,-9.575 l 2.364,-8.683 c 0.243,-0.888 0.486,-2.941 1.767,-2.593 1.578,0.431 1.096,3.372 3.463,4.017 1.284,0.35 3.266,-0.7 3.642,-2.081 0.779,-2.862 -1.481,-7.398 -3.197,-9.667 -2.6,-3.677 -5.937,-5.433 -10.179,-6.589 -4.244,-1.156 -8.386,-1.12 -12.278,1.106 -4.421,2.611 -6.098,6.819 -7.36,11.455 l -1.827,6.709 c -1.237,4.538 -2.842,10.037 -8.922,9.016 l -1.587,5.821 c 5.195,1.945 4.998,5.389 3.681,10.224 l -3.253,11.937 c -1.342,4.933 -3.074,7.005 -8.49,7.438 z M 268.63,372.247 c -0.995,3.65 -1.057,4.269 -4.806,4.414 -1.39,0.045 -2.52,0.691 -2.897,2.072 -0.779,2.861 2.423,3.945 2.818,4.052 l 26.046,7.097 17.094,-62.748 c 0.994,-3.652 1.058,-4.271 4.806,-4.414 1.391,-0.046 2.521,-0.692 2.897,-2.073 0.779,-2.861 -2.423,-3.946 -2.817,-4.053 l -27.921,-7.607 c -0.396,-0.107 -3.705,-0.797 -4.484,2.065 -0.376,1.381 0.27,2.511 1.445,3.256 3.157,2.024 2.897,2.589 1.903,6.241 z"
           style="fill:none;stroke:#ed1c24;stroke-width:0.81599998;stroke-linecap:butt;stroke-linejoin:miter;stroke-miterlimit:4;stroke-dasharray:none;stroke-opacity:1"
           id="path3150"
           inkscape:connector-curvature="0" /><path
           d="m 386.979,341.64 c 4.178,2.941 3.767,6.008 3.095,8.475 l -13.922,51.106 c -0.673,2.466 -1.874,5.319 -6.967,5.733 l -1.559,5.722 c 21.426,3.824 35.789,-10.386 41.139,-30.021 5.348,-19.633 0.176,-39.164 -20.228,-46.737 z m -22.235,64.104 c -4.18,-2.941 -3.768,-6.008 -3.097,-8.475 l 13.923,-51.105 c 0.673,-2.467 1.874,-5.32 6.967,-5.734 l 1.559,-5.722 c -21.427,-3.824 -35.788,10.387 -41.138,30.02 -5.349,19.634 -0.179,39.166 20.228,46.738 z"
           style="fill:#ed1c24;fill-opacity:1;fill-rule:nonzero;stroke:none"
           id="path3152"
           inkscape:connector-curvature="0" /><path
           d="m 386.979,341.64 c 4.178,2.941 3.767,6.008 3.095,8.475 l -13.922,51.106 c -0.673,2.466 -1.874,5.319 -6.967,5.733 l -1.559,5.722 c 21.426,3.824 35.789,-10.386 41.139,-30.021 5.348,-19.633 0.176,-39.164 -20.228,-46.737 z m -22.235,64.104 c -4.18,-2.941 -3.768,-6.008 -3.097,-8.475 l 13.923,-51.105 c 0.673,-2.467 1.874,-5.32 6.967,-5.734 l 1.559,-5.722 c -21.427,-3.824 -35.788,10.387 -41.138,30.02 -5.349,19.634 -0.179,39.166 20.228,46.738 z"
           style="fill:none;stroke:#ed1c24;stroke-width:0.81599998;stroke-linecap:butt;stroke-linejoin:miter;stroke-miterlimit:4;stroke-dasharray:none;stroke-opacity:1"
           id="path3154"
           inkscape:connector-curvature="0" /><path
           d="m 455.313,395.019 -0.119,23.39 c 0.064,1.714 0.101,2.359 -0.356,4.036 -0.754,2.763 -2.395,4.117 -5.201,4.306 -1.839,0.136 -3.381,0.351 -3.919,2.324 -0.834,3.058 2.72,4.026 4.791,4.59 l 10.852,2.957 c 2.17,0.591 5.714,1.981 6.575,-1.176 0.59,-2.171 -0.71,-2.843 -2.171,-4.089 -2.245,-1.883 -2.996,-2.618 -3.931,-5.417 -0.719,-2.42 -0.89,-4.905 -0.863,-7.336 l 0.07,-32.94 -0.196,-0.055 z m 5.631,-37.786 -14.207,-3.87 -36.225,58.278 c -1.57,2.646 -1.354,3.023 -4.341,3.482 -1.344,0.269 -2.375,0.941 -2.752,2.323 -0.887,3.256 3.285,4.285 5.555,4.904 l 21.606,5.886 c 2.27,0.618 6.843,2.5 7.81,-1.051 1.048,-3.848 -3.749,-3.354 -2.647,-7.398 0.322,-1.184 0.653,-1.623 1.272,-2.726 l 23.899,-39.487 z"
           style="fill:#ed1c24;fill-opacity:1;fill-rule:nonzero;stroke:none"
           id="path3156"
           inkscape:connector-curvature="0" /><path
           d="m 455.313,395.019 -0.119,23.39 c 0.064,1.714 0.101,2.359 -0.356,4.036 -0.754,2.763 -2.395,4.117 -5.201,4.306 -1.839,0.136 -3.381,0.351 -3.919,2.324 -0.834,3.058 2.72,4.026 4.791,4.59 l 10.852,2.957 c 2.17,0.591 5.714,1.981 6.575,-1.176 0.59,-2.171 -0.71,-2.843 -2.171,-4.089 -2.245,-1.883 -2.996,-2.618 -3.931,-5.417 -0.719,-2.42 -0.89,-4.905 -0.863,-7.336 l 0.07,-32.94 -0.196,-0.055 z m 5.631,-37.786 -14.207,-3.87 -36.225,58.278 c -1.57,2.646 -1.354,3.023 -4.341,3.482 -1.344,0.269 -2.375,0.941 -2.752,2.323 -0.887,3.256 3.285,4.285 5.555,4.904 l 21.606,5.886 c 2.27,0.618 6.843,2.5 7.81,-1.051 1.048,-3.848 -3.749,-3.354 -2.647,-7.398 0.322,-1.184 0.653,-1.623 1.272,-2.726 l 23.899,-39.487 z"
           style="fill:none;stroke:#ed1c24;stroke-width:0.81599998;stroke-linecap:butt;stroke-linejoin:miter;stroke-miterlimit:4;stroke-dasharray:none;stroke-opacity:1"
           id="path3158"
           inkscape:connector-curvature="0" /><path
           d="m 522.231,380.077 c 7.722,3.163 12.36,10.256 12.873,18.875 0.289,1.668 0.452,3.407 2.226,3.891 3.158,0.861 3.669,-2.18 3.776,-2.574 l 5.375,-19.733 -22.691,-6.182 z m -9.568,35.123 c 3.847,2.214 4.675,6.573 4.54,10.564 0.037,1.811 0.198,3.55 2.27,4.115 3.058,0.834 3.533,-2.853 3.748,-3.642 l 5.806,-21.31 c 0.215,-0.79 1.676,-4.207 -1.382,-5.041 -2.072,-0.564 -3.095,0.853 -4.044,2.396 -1.91,3.507 -4.832,6.845 -9.272,6.801 z m -8.977,32.952 22.001,5.994 5.456,-20.028 c 0.133,-0.493 0.546,-2.394 -2.414,-3.201 -1.677,-0.458 -2.44,0.396 -3.334,1.741 -4.744,7.293 -11.092,10.756 -20.15,9.772 z m -30.488,-8.305 26.047,7.095 20.105,-73.797 -26.047,-7.096 c -0.394,-0.108 -3.703,-0.797 -4.483,2.064 -0.376,1.381 0.269,2.511 1.446,3.255 3.158,2.026 2.897,2.591 1.903,6.242 l -14.084,51.698 c -0.994,3.65 -1.059,4.269 -4.806,4.414 -1.39,0.045 -2.521,0.691 -2.897,2.072 -0.778,2.862 2.423,3.945 2.816,4.053"
           style="fill:#ed1c24;fill-opacity:1;fill-rule:nonzero;stroke:none"
           id="path3160"
           inkscape:connector-curvature="0" /><path
           d="m 522.231,380.077 c 7.722,3.163 12.36,10.256 12.873,18.875 0.289,1.668 0.452,3.407 2.226,3.891 3.158,0.861 3.669,-2.18 3.776,-2.574 l 5.375,-19.733 -22.691,-6.182 z m -9.568,35.123 c 3.847,2.214 4.675,6.573 4.54,10.564 0.037,1.811 0.198,3.55 2.27,4.115 3.058,0.834 3.533,-2.853 3.748,-3.642 l 5.806,-21.31 c 0.215,-0.79 1.676,-4.207 -1.382,-5.041 -2.072,-0.564 -3.095,0.853 -4.044,2.396 -1.91,3.507 -4.832,6.845 -9.272,6.801 z m -8.977,32.952 22.001,5.994 5.456,-20.028 c 0.133,-0.493 0.546,-2.394 -2.414,-3.201 -1.677,-0.458 -2.44,0.396 -3.334,1.741 -4.744,7.293 -11.092,10.756 -20.15,9.772 z m -30.488,-8.305 26.047,7.095 20.105,-73.797 -26.047,-7.096 c -0.394,-0.108 -3.703,-0.797 -4.483,2.064 -0.376,1.381 0.269,2.511 1.446,3.255 3.158,2.026 2.897,2.591 1.903,6.242 l -14.084,51.698 c -0.994,3.65 -1.059,4.269 -4.806,4.414 -1.39,0.045 -2.521,0.691 -2.897,2.072 -0.778,2.862 2.423,3.945 2.816,4.053 z"
           style="fill:none;stroke:#ed1c24;stroke-width:0.81599998;stroke-linecap:butt;stroke-linejoin:miter;stroke-miterlimit:4;stroke-dasharray:none;stroke-opacity:1"
           id="path3162"
           inkscape:connector-curvature="0" /><path
           d="m 567.518,465.542 c 16.718,4.767 33.9,-3.058 42.018,-28.19 7.403,-22.89 -5.536,-41.146 -21.914,-45.608 l -1.559,5.722 c 5.804,2.43 4.569,8.134 3.546,11.883 l -11.449,42.029 c -1.021,3.749 -2.849,9.292 -9.083,8.442 z m 15.666,-75.007 -25.061,-6.827 c -2.171,-0.592 -4.691,-1.066 -5.471,1.795 -0.376,1.381 0.271,2.511 1.446,3.255 3.158,2.026 2.897,2.591 1.903,6.242 l -14.084,51.698 c -0.403,1.48 -0.932,4.198 -2.967,4.278 -2.162,0.154 -4.117,-0.061 -4.79,2.405 -0.698,2.566 1.688,3.533 3.66,4.071 l 25.259,6.881 z"
           style="fill:#ed1c24;fill-opacity:1;fill-rule:nonzero;stroke:none"
           id="path3164"
           inkscape:connector-curvature="0" /><path
           d="m 567.518,465.542 c 16.718,4.767 33.9,-3.058 42.018,-28.19 7.403,-22.89 -5.536,-41.146 -21.914,-45.608 l -1.559,5.722 c 5.804,2.43 4.569,8.134 3.546,11.883 l -11.449,42.029 c -1.021,3.749 -2.849,9.292 -9.083,8.442 z m 15.666,-75.007 -25.061,-6.827 c -2.171,-0.592 -4.691,-1.066 -5.471,1.795 -0.376,1.381 0.271,2.511 1.446,3.255 3.158,2.026 2.897,2.591 1.903,6.242 l -14.084,51.698 c -0.403,1.48 -0.932,4.198 -2.967,4.278 -2.162,0.154 -4.117,-0.061 -4.79,2.405 -0.698,2.566 1.688,3.533 3.66,4.071 l 25.259,6.881 z"
           style="fill:none;stroke:#ed1c24;stroke-width:0.81599998;stroke-linecap:butt;stroke-linejoin:miter;stroke-miterlimit:4;stroke-dasharray:none;stroke-opacity:1"
           id="path3166"
           inkscape:connector-curvature="0" /></g></g></g></svg>